<svg width="40" height="40" viewBox="0 0 40 40" fill="none" xmlns="http://www.w3.org/2000/svg">
<rect width="40" height="40" rx="5" fill="#E4405F"/>
<path d="M19.997 16.3318C17.9772 16.3318 16.3289 17.9801 16.3289 20C16.3289 22.0199 17.9772 23.6682 19.997 23.6682C22.0169 23.6682 23.6652 22.0199 23.6652 20C23.6652 17.9801 22.0169 16.3318 19.997 16.3318ZM30.9988 20C30.9988 18.481 31.0125 16.9757 30.9272 15.4594C30.8419 13.6982 30.4402 12.1352 29.1523 10.8473C27.8617 9.55669 26.3014 9.15767 24.5403 9.07237C23.0213 8.98706 21.516 9.00082 19.9998 9.00082C18.4808 9.00082 16.9756 8.98706 15.4593 9.07237C13.6982 9.15767 12.1351 9.55945 10.8473 10.8473C9.55668 12.1379 9.15767 13.6982 9.07237 15.4594C8.98706 16.9785 9.00082 18.4837 9.00082 20C9.00082 21.5163 8.98706 23.0243 9.07237 24.5406C9.15767 26.3018 9.55944 27.8648 10.8473 29.1527C12.1379 30.4433 13.6982 30.8423 15.4593 30.9276C16.9783 31.0129 18.4835 30.9992 19.9998 30.9992C21.5188 30.9992 23.024 31.0129 24.5403 30.9276C26.3014 30.8423 27.8645 30.4406 29.1523 29.1527C30.4429 27.8621 30.8419 26.3018 30.9272 24.5406C31.0153 23.0243 30.9988 21.519 30.9988 20ZM19.997 25.6441C16.8737 25.6441 14.3531 23.1234 14.3531 20C14.3531 16.8766 16.8737 14.3559 19.997 14.3559C23.1203 14.3559 25.641 16.8766 25.641 20C25.641 23.1234 23.1203 25.6441 19.997 25.6441ZM25.8722 15.4429C25.1429 15.4429 24.554 14.854 24.554 14.1248C24.554 13.3955 25.1429 12.8066 25.8722 12.8066C26.6014 12.8066 27.1903 13.3955 27.1903 14.1248C27.1905 14.2979 27.1565 14.4694 27.0904 14.6295C27.0242 14.7895 26.9271 14.9349 26.8047 15.0573C26.6822 15.1798 26.5369 15.2769 26.3768 15.343C26.2168 15.4092 26.0453 15.4431 25.8722 15.4429Z" fill="white"/>
</svg>
