<svg width="1368" height="867" viewBox="0 0 1368 867" fill="none" xmlns="http://www.w3.org/2000/svg">
<rect x="72" width="1157" height="67" fill="#222020"/>
<path d="M1218.5 267C1238.13 267 1257.57 263.547 1275.71 256.838C1293.85 250.129 1310.33 240.295 1324.21 227.899C1338.09 215.502 1349.11 200.785 1356.62 184.588C1364.13 168.391 1368 151.031 1368 133.5C1368 115.969 1364.13 98.6087 1356.62 82.4118C1349.11 66.2148 1338.09 51.4979 1324.21 39.1012C1310.33 26.7046 1293.85 16.8711 1275.71 10.1621C1257.57 3.45308 1238.13 -1.53265e-06 1218.5 0L1218.5 66.75C1228.32 66.75 1238.04 68.4765 1247.11 71.831C1256.17 75.1855 1264.42 80.1023 1271.36 86.3006C1278.3 92.4989 1283.8 99.8574 1287.56 107.956C1291.32 116.054 1293.25 124.734 1293.25 133.5C1293.25 142.266 1291.32 150.946 1287.56 159.044C1283.8 167.143 1278.3 174.501 1271.36 180.699C1264.42 186.898 1256.17 191.814 1247.11 195.169C1238.04 198.523 1228.32 200.25 1218.5 200.25V267Z" fill="#222020"/>
<rect x="146" y="400" width="1083" height="67" fill="#222020"/>
<rect x="138" y="800" width="1083" height="67" fill="#222020"/>
<rect width="1083" height="67" transform="matrix(-1 0 0 1 1222 200)" fill="#222020"/>
<path d="M149.5 467C129.867 467 110.427 463.547 92.2888 456.838C74.1507 450.129 57.6699 440.295 43.7875 427.899C29.9052 415.502 18.8931 400.785 11.38 384.588C3.86693 368.391 -8.58169e-07 351.031 0 333.5C8.58169e-07 315.969 3.86693 298.609 11.38 282.412C18.8931 266.215 29.9052 251.498 43.7875 239.101C57.6699 226.705 74.1507 216.871 92.2888 210.162C110.427 203.453 129.867 200 149.5 200L149.5 266.75C139.684 266.75 129.964 268.477 120.894 271.831C111.825 275.186 103.585 280.102 96.6438 286.301C89.7026 292.499 84.1965 299.857 80.44 307.956C76.6835 316.054 74.75 324.734 74.75 333.5C74.75 342.266 76.6835 350.946 80.44 359.044C84.1965 367.143 89.7026 374.501 96.6438 380.699C103.585 386.898 111.825 391.814 120.894 395.169C129.964 398.523 139.684 400.25 149.5 400.25V467Z" fill="#222020"/>
<path d="M149.5 867C129.867 867 110.427 863.547 92.2888 856.838C74.1507 850.129 57.6699 840.295 43.7875 827.899C29.9052 815.502 18.8931 800.785 11.38 784.588C3.86693 768.391 -8.58169e-07 751.031 0 733.5C8.58169e-07 715.969 3.86693 698.609 11.38 682.412C18.8931 666.215 29.9052 651.498 43.7875 639.101C57.6699 626.705 74.1507 616.871 92.2888 610.162C110.427 603.453 129.867 600 149.5 600L149.5 666.75C139.684 666.75 129.964 668.477 120.894 671.831C111.825 675.186 103.585 680.102 96.6438 686.301C89.7026 692.499 84.1965 699.857 80.44 707.956C76.6835 716.054 74.75 724.734 74.75 733.5C74.75 742.266 76.6835 750.946 80.44 759.044C84.1965 767.143 89.7026 774.501 96.6438 780.699C103.585 786.898 111.825 791.814 120.894 795.169C129.964 798.523 139.684 800.25 149.5 800.25V867Z" fill="#222020"/>
<line x1="1072" y1="831.5" x2="1125" y2="831.5" stroke="white" stroke-width="5"/>
<line x1="351" y1="31.5" x2="404" y2="31.5" stroke="white" stroke-width="5"/>
<line x1="454" y1="31.5" x2="507" y2="31.5" stroke="white" stroke-width="5"/>
<line x1="557" y1="31.5" x2="610" y2="31.5" stroke="white" stroke-width="5"/>
<line x1="660" y1="31.5" x2="713" y2="31.5" stroke="white" stroke-width="5"/>
<line x1="763" y1="31.5" x2="816" y2="31.5" stroke="white" stroke-width="5"/>
<line x1="866" y1="31.5" x2="919" y2="31.5" stroke="white" stroke-width="5"/>
<line x1="1072" y1="31.5" x2="1125" y2="31.5" stroke="white" stroke-width="5"/>
<line x1="1175" y1="31.5" x2="1228" y2="31.5" stroke="white" stroke-width="5"/>
<line x1="238" y1="231.5" x2="291" y2="231.5" stroke="white" stroke-width="5"/>
<line x1="341" y1="231.5" x2="394" y2="231.5" stroke="white" stroke-width="5"/>
<line x1="135" y1="231.5" x2="188" y2="231.5" stroke="white" stroke-width="5"/>
<line x1="454" y1="231.5" x2="507" y2="231.5" stroke="white" stroke-width="5"/>
<line x1="557" y1="231.5" x2="610" y2="231.5" stroke="white" stroke-width="5"/>
<line x1="660" y1="231.5" x2="713" y2="231.5" stroke="white" stroke-width="5"/>
<line x1="866" y1="231.5" x2="919" y2="231.5" stroke="white" stroke-width="5"/>
<line x1="969" y1="231.5" x2="1022" y2="231.5" stroke="white" stroke-width="5"/>
<line x1="1072" y1="231.5" x2="1125" y2="231.5" stroke="white" stroke-width="5"/>
<line x1="1175" y1="231.5" x2="1228" y2="231.5" stroke="white" stroke-width="5"/>
<line x1="238" y1="431.5" x2="291" y2="431.5" stroke="white" stroke-width="5"/>
<line x1="341" y1="431.5" x2="394" y2="431.5" stroke="white" stroke-width="5"/>
<line x1="135" y1="431.5" x2="188" y2="431.5" stroke="white" stroke-width="5"/>
<line x1="454" y1="431.5" x2="507" y2="431.5" stroke="white" stroke-width="5"/>
<line x1="557" y1="431.5" x2="610" y2="431.5" stroke="white" stroke-width="5"/>
<line x1="660" y1="431.5" x2="713" y2="431.5" stroke="white" stroke-width="5"/>
<line x1="763" y1="431.5" x2="816" y2="431.5" stroke="white" stroke-width="5"/>
<line x1="866" y1="431.5" x2="919" y2="431.5" stroke="white" stroke-width="5"/>
<line x1="1072" y1="431.5" x2="1125" y2="431.5" stroke="white" stroke-width="5"/>
<path d="M1271 45.7361C1271 45.7361 1287.57 51.2064 1295.92 58.1734C1303.88 64.8118 1312.08 79.2285 1312.08 79.2285" stroke="white" stroke-width="5"/>
<path d="M1271 220.492C1271 220.492 1287.57 215.022 1295.92 208.055C1303.88 201.417 1312.08 187 1312.08 187" stroke="white" stroke-width="5"/>
<line x1="1329.5" y1="160" x2="1329.5" y2="107" stroke="white" stroke-width="5"/>
<path d="M93.4203 245.736C93.4203 245.736 76.8521 251.206 68.4993 258.173C60.5403 264.812 52.344 279.228 52.344 279.228" stroke="white" stroke-width="5"/>
<path d="M93.4203 422.494C93.4203 422.494 76.8521 417.024 68.4993 410.057C60.5403 403.419 52.344 389.002 52.344 389.002" stroke="white" stroke-width="5"/>
<line y1="-2.5" x2="53" y2="-2.5" transform="matrix(0 -1 -1 0 39 360.674)" stroke="white" stroke-width="5"/>
<path d="M1218.5 667C1238.13 667 1257.57 663.547 1275.71 656.838C1293.85 650.129 1310.33 640.295 1324.21 627.899C1338.09 615.502 1349.11 600.785 1356.62 584.588C1364.13 568.391 1368 551.031 1368 533.5C1368 515.969 1364.13 498.609 1356.62 482.412C1349.11 466.215 1338.09 451.498 1324.21 439.101C1310.33 426.705 1293.85 416.871 1275.71 410.162C1257.57 403.453 1238.13 400 1218.5 400L1218.5 466.75C1228.32 466.75 1238.04 468.477 1247.11 471.831C1256.17 475.186 1264.42 480.102 1271.36 486.301C1278.3 492.499 1283.8 499.857 1287.56 507.956C1291.32 516.054 1293.25 524.734 1293.25 533.5C1293.25 542.266 1291.32 550.946 1287.56 559.044C1283.8 567.143 1278.3 574.501 1271.36 580.699C1264.42 586.898 1256.17 591.814 1247.11 595.169C1238.04 598.523 1228.32 600.25 1218.5 600.25V667Z" fill="#222020"/>
<line x1="1175" y1="431.5" x2="1228" y2="431.5" stroke="white" stroke-width="5"/>
<path d="M1271 445.736C1271 445.736 1287.57 451.206 1295.92 458.173C1303.88 464.812 1312.08 479.228 1312.08 479.228" stroke="white" stroke-width="5"/>
<path d="M1271 620.492C1271 620.492 1287.57 615.022 1295.92 608.055C1303.88 601.417 1312.08 587 1312.08 587" stroke="white" stroke-width="5"/>
<line x1="1329.5" y1="558" x2="1329.5" y2="505" stroke="white" stroke-width="5"/>
<rect width="1083" height="67" transform="matrix(-1 0 0 1 1222 600)" fill="#222020"/>
<line x1="238" y1="631.5" x2="291" y2="631.5" stroke="white" stroke-width="5"/>
<line x1="341" y1="631.5" x2="394" y2="631.5" stroke="white" stroke-width="5"/>
<line x1="135" y1="631.5" x2="188" y2="631.5" stroke="white" stroke-width="5"/>
<line x1="454" y1="631.5" x2="507" y2="631.5" stroke="white" stroke-width="5"/>
<line x1="557" y1="631.5" x2="610" y2="631.5" stroke="white" stroke-width="5"/>
<line x1="660" y1="631.5" x2="713" y2="631.5" stroke="white" stroke-width="5"/>
<line x1="763" y1="631.5" x2="816" y2="631.5" stroke="white" stroke-width="5"/>
<line x1="866" y1="631.5" x2="919" y2="631.5" stroke="white" stroke-width="5"/>
<line x1="969" y1="631.5" x2="1022" y2="631.5" stroke="white" stroke-width="5"/>
<line x1="1072" y1="631.5" x2="1125" y2="631.5" stroke="white" stroke-width="5"/>
<line x1="1175" y1="631.5" x2="1228" y2="631.5" stroke="white" stroke-width="5"/>
<line x1="238" y1="831.5" x2="291" y2="831.5" stroke="white" stroke-width="5"/>
<line x1="341" y1="831.5" x2="394" y2="831.5" stroke="white" stroke-width="5"/>
<line x1="135" y1="831.5" x2="188" y2="831.5" stroke="white" stroke-width="5"/>
<line x1="454" y1="831.5" x2="507" y2="831.5" stroke="white" stroke-width="5"/>
<line x1="557" y1="831.5" x2="610" y2="831.5" stroke="white" stroke-width="5"/>
<line x1="660" y1="831.5" x2="713" y2="831.5" stroke="white" stroke-width="5"/>
<line x1="763" y1="831.5" x2="816" y2="831.5" stroke="white" stroke-width="5"/>
<line x1="866" y1="831.5" x2="919" y2="831.5" stroke="white" stroke-width="5"/>
<path d="M93.4203 645.736C93.4203 645.736 76.8521 651.206 68.4993 658.173C60.5403 664.812 52.344 679.228 52.344 679.228" stroke="white" stroke-width="5"/>
<path d="M93.4203 822.494C93.4203 822.494 76.8521 817.024 68.4993 810.057C60.5403 803.419 52.344 789.002 52.344 789.002" stroke="white" stroke-width="5"/>
<line y1="-2.5" x2="53" y2="-2.5" transform="matrix(0 -1 -1 0 39 760.674)" stroke="white" stroke-width="5"/>
</svg>
