<svg width="162" height="65" viewBox="0 0 162 65" fill="none" xmlns="http://www.w3.org/2000/svg">
<mask id="mask0_598_523" style="mask-type:luminance" maskUnits="userSpaceOnUse" x="0" y="0" width="161" height="25">
<path d="M0.0546875 0.882812H160.386V24.113H0.0546875V0.882812Z" fill="white"/>
</mask>
<g mask="url(#mask0_598_523)">
<path d="M147.227 17.2438C145.23 16.8674 143.249 16.3741 141.304 15.7673C139.359 15.1573 137.434 14.4564 135.534 13.6841C133.631 12.9118 131.742 12.0844 129.852 11.2245L124.127 8.60588C122.195 7.72976 120.227 6.86986 118.201 6.0489C117.691 5.84772 117.188 5.64329 116.668 5.4486L115.895 5.15331L115.116 4.87101C114.597 4.67631 114.061 4.50109 113.535 4.31613C113.268 4.22527 112.999 4.14091 112.733 4.05329C112.463 3.96893 112.2 3.87807 111.927 3.79695C111.382 3.63146 110.843 3.46597 110.291 3.3167C110.015 3.23883 109.739 3.16095 109.463 3.08632L108.625 2.87864C108.07 2.73911 107.514 2.59309 106.946 2.47952L106.102 2.29781C105.819 2.2394 105.537 2.1745 105.251 2.12583L103.543 1.82081L101.822 1.56446C101.679 1.54499 101.536 1.51903 101.39 1.50281L100.958 1.45089L100.095 1.3503C99.8057 1.31785 99.52 1.27891 99.2277 1.2562L98.3607 1.17832C96.0455 0.973893 93.7238 0.883037 91.4086 0.905751C89.0966 0.928465 86.7911 1.04204 84.5116 1.24971C79.9461 1.65857 75.4845 2.43085 71.1431 3.42703C66.8081 4.43944 62.5933 5.68223 58.5116 7.11323C56.4724 7.83035 54.4559 8.57992 52.4849 9.38465C50.5074 10.1829 48.5591 11.0201 46.6497 11.8962C50.7412 10.5268 54.8683 9.23538 59.0669 8.12563C63.259 7.0029 67.5192 6.05215 71.8185 5.31556C73.9713 4.94564 76.1372 4.64711 78.3063 4.40374C79.3908 4.27719 80.4786 4.18309 81.5632 4.08899L83.1965 3.97542C83.7388 3.93972 84.2843 3.9235 84.8298 3.89429C87.0054 3.80668 89.1778 3.78397 91.3371 3.8586L92.9542 3.93323C93.4933 3.96568 94.029 4.01111 94.5648 4.0468L94.9675 4.07601L96.1657 4.19282C96.4319 4.22203 96.6982 4.2415 96.9645 4.27395L97.76 4.37454L98.5523 4.47189C98.8186 4.50433 99.0784 4.55301 99.3414 4.5887L100.52 4.77366C100.65 4.79313 100.78 4.81909 100.91 4.84505L102.462 5.13384L103.998 5.47131C104.254 5.52323 104.504 5.59137 104.758 5.65627L105.514 5.84447C106.024 5.96129 106.514 6.1138 107.011 6.25333L107.758 6.46425C108.005 6.53888 108.248 6.62 108.492 6.69463C108.982 6.8439 109.466 7.01588 109.953 7.17812C113.833 8.51826 117.542 10.2348 121.26 12.0325C124.984 13.8334 128.728 15.7349 132.745 17.445C133.514 17.7727 134.294 18.0907 135.083 18.399C132.703 18.5839 130.316 18.7202 127.923 18.8208L125.65 18.9052L123.374 18.9603C122.614 18.983 121.854 18.983 121.094 18.9928L119.954 19.0057C119.574 19.009 119.195 19.0057 118.815 19.0057C115.772 19.0187 112.723 18.9538 109.674 18.8662C106.622 18.7754 103.569 18.6326 100.514 18.4639C97.458 18.2951 94.3992 18.1004 91.3371 17.8733C85.2162 17.4385 79.0889 16.9063 72.942 16.3904C66.7984 15.8712 60.632 15.3552 54.4429 14.9367L52.1212 14.7841C51.3484 14.7322 50.5723 14.6836 49.7962 14.6381C48.2441 14.5473 46.6887 14.4661 45.1301 14.3948C44.3507 14.3591 43.5714 14.3331 42.7921 14.3007L40.4444 14.226C39.6619 14.213 38.8793 14.1936 38.0967 14.1871L36.9212 14.1806C36.5283 14.1741 36.1387 14.1741 35.7458 14.1774C34.96 14.1838 34.1774 14.1806 33.3916 14.2001L32.2129 14.2228C31.8232 14.2325 31.4303 14.2455 31.0374 14.2617L29.8587 14.3071L28.6832 14.3688C27.9006 14.4045 27.1181 14.4629 26.3355 14.5181C23.2052 14.7452 20.0912 15.1249 17.0324 15.6603C13.9703 16.2054 10.9732 16.9258 8.09297 17.8408C5.21599 18.7591 2.45266 19.8624 -0.0996094 21.1831C5.41731 19.0609 11.3661 17.7337 17.3928 17.075C23.4358 16.4033 29.5567 16.3904 35.6484 16.6662C36.0283 16.6824 36.4082 16.7019 36.7914 16.7246L37.9311 16.7895C38.6942 16.8349 39.4573 16.8901 40.2171 16.9388L42.5031 17.1075C43.263 17.1724 44.026 17.2308 44.7859 17.3022C46.312 17.4385 47.835 17.5812 49.3579 17.737C50.884 17.883 52.4102 18.0453 53.9364 18.201C60.041 18.8532 66.1457 19.5541 72.2731 20.2356C84.5181 21.5952 96.8671 22.8704 109.395 23.3539C115.655 23.6005 121.955 23.633 128.257 23.3734C131.407 23.2371 134.56 23.0424 137.7 22.7471C140.84 22.4486 143.97 22.0689 147.081 21.6017L160.063 19.6547L147.227 17.2438Z" fill="#0984FF"/>
</g>
<mask id="mask1_598_523" style="mask-type:luminance" maskUnits="userSpaceOnUse" x="108" y="20" width="54" height="14">
<path d="M108.018 20.791H161.94V33.2514H108.018V20.791Z" fill="white"/>
</mask>
<g mask="url(#mask1_598_523)">
<path d="M112.779 30.5192C117.618 31.577 122.524 32.3558 127.456 32.8068C133.642 33.3747 139.945 33.4558 146.092 32.4629C149.082 31.9794 152.044 31.233 154.846 30.0746C157.142 29.1239 161.493 27.5793 161.906 24.7206C162.055 23.7114 162.094 22.1798 160.821 21.3913C159.178 20.3724 156.976 21.3978 155.44 21.9819C153.606 22.6795 151.797 23.4194 149.816 23.9612C147.342 24.6394 144.783 25.2008 142.199 25.7005C139.286 26.2651 136.318 26.7713 133.321 27.151C134.801 27.3943 137.256 27.7286 138.588 27.8941C140.176 28.0887 141.773 28.264 143.38 28.4035C145.069 28.5495 146.813 28.6566 148.56 28.715C140.786 30.2758 127.547 31.6419 108.295 29.4321C109.808 29.8215 111.318 30.2012 112.779 30.5192Z" fill="#FF6F00"/>
</g>
<path d="M38.4866 50.3267C38.2788 49.7815 38.084 49.2461 37.9021 48.7172C37.7203 48.1915 37.5319 47.6496 37.3436 47.0948H31.6156L30.4596 50.3267H28.6152C29.0991 48.9865 29.5537 47.7502 29.979 46.6145C30.4109 45.482 30.8298 44.4047 31.2389 43.3826C31.6448 42.3637 32.0475 41.3902 32.4469 40.4622C32.8528 39.5277 33.2717 38.6029 33.7068 37.6846H35.3304C35.772 38.6029 36.1909 39.5277 36.5903 40.4622C36.9962 41.3902 37.402 42.3637 37.8112 43.3826C38.2171 44.4047 38.6327 45.482 39.0581 46.6145C39.4802 47.7502 39.9348 48.9865 40.4219 50.3267H38.4866ZM36.8241 45.641C36.4409 44.5865 36.0577 43.5643 35.6681 42.5779C35.2849 41.5849 34.8887 40.6277 34.4731 39.7094C34.0477 40.6277 33.6451 41.5849 33.2652 42.5779C32.882 43.5643 32.5021 44.5865 32.1222 45.641H36.8241Z" fill="#0984FF"/>
<path d="M44.6445 50.4311C44.3848 50.4311 44.1023 50.4246 43.8003 50.4181C43.5048 50.4084 43.206 50.3922 42.904 50.3662C42.6086 50.3402 42.3131 50.311 42.0208 50.2753C41.7351 50.2429 41.4688 50.1942 41.2285 50.1326V37.8669C41.4688 37.8085 41.7351 37.7598 42.0208 37.7241C42.3131 37.6917 42.6086 37.6592 42.904 37.6333C43.206 37.6073 43.5048 37.5911 43.8003 37.5813C44.0925 37.5748 44.3653 37.5684 44.6185 37.5684C45.3459 37.5684 46.0278 37.6268 46.6708 37.7371C47.3104 37.8409 47.8657 38.0226 48.3333 38.2822C48.8009 38.5418 49.1678 38.889 49.4373 39.3206C49.7036 39.7457 49.84 40.2649 49.84 40.8781C49.84 41.5726 49.6744 42.1437 49.3464 42.5914C49.0152 43.0328 48.5801 43.3637 48.0346 43.5779C48.7782 43.7953 49.3659 44.1425 49.801 44.6163C50.2426 45.0933 50.4634 45.765 50.4634 46.6281C50.4634 47.8936 49.9958 48.8444 49.0607 49.4836C48.132 50.1164 46.661 50.4311 44.6445 50.4311ZM42.982 44.4345V48.8865C43.1119 48.8963 43.2677 48.9093 43.4496 48.9255C43.6119 48.9352 43.8003 48.9449 44.0081 48.9514C44.2224 48.9612 44.4692 48.9644 44.7484 48.9644C45.268 48.9644 45.7615 48.932 46.2291 48.8606C46.7032 48.7924 47.1156 48.6756 47.4631 48.5101C47.817 48.3382 48.0995 48.1013 48.3073 47.7963C48.5216 47.4945 48.632 47.1083 48.632 46.6411C48.632 46.2257 48.5541 45.8753 48.3982 45.5897C48.2424 45.3042 48.0118 45.0803 47.7098 44.9148C47.4144 44.7428 47.0604 44.6228 46.6448 44.5514C46.2291 44.4735 45.7648 44.4345 45.255 44.4345H42.982ZM42.982 43.0198H44.8394C45.281 43.0198 45.6966 42.9906 46.0863 42.9289C46.4759 42.8705 46.8136 42.7602 47.0994 42.6044C47.3851 42.4422 47.6059 42.2345 47.7618 41.9814C47.9242 41.7218 48.0086 41.3973 48.0086 41.0079C48.0086 40.6445 47.9209 40.3395 47.7488 40.0864C47.5832 39.8365 47.3494 39.6386 47.0474 39.4893C46.7519 39.3336 46.4045 39.2233 46.0083 39.1519C45.6089 39.074 45.1836 39.035 44.7354 39.035C44.2841 39.035 43.9302 39.0448 43.6704 39.061C43.4171 39.0707 43.1898 39.087 42.982 39.1129V43.0198Z" fill="#0984FF"/>
<path d="M60.4902 37.6846V39.2162H56.5157V50.3267H54.7492V39.2162H50.7617V37.6846H60.4902Z" fill="#0984FF"/>
<path d="M60.9219 43.9921C60.9219 42.9115 61.081 41.9608 61.4025 41.1366C61.7304 40.3059 62.172 39.6147 62.7273 39.0598C63.2793 38.5082 63.9255 38.0928 64.6626 37.8138C65.3965 37.538 66.1758 37.3984 67.0006 37.3984C67.8123 37.3984 68.5852 37.538 69.3125 37.8138C70.0399 38.0928 70.6763 38.5082 71.2219 39.0598C71.7674 39.6147 72.1993 40.3059 72.5207 41.1366C72.8487 41.9608 73.0143 42.9115 73.0143 43.9921C73.0143 45.0823 72.8487 46.0428 72.5207 46.8735C72.1993 47.6977 71.7674 48.3856 71.2219 48.9373C70.6763 49.4824 70.0399 49.8978 69.3125 50.1833C68.5852 50.4591 67.8123 50.5986 67.0006 50.5986C66.1758 50.5986 65.3965 50.4591 64.6626 50.1833C63.9255 49.8978 63.2793 49.4824 62.7273 48.9373C62.172 48.3856 61.7304 47.6977 61.4025 46.8735C61.081 46.0428 60.9219 45.0823 60.9219 43.9921ZM62.7922 43.9921C62.7922 44.7643 62.8864 45.4652 63.078 46.0947C63.2761 46.7178 63.5521 47.2499 63.9093 47.6912C64.2729 48.126 64.7081 48.4635 65.2211 48.7036C65.7407 48.9373 66.3251 49.0541 66.9746 49.0541C67.6143 49.0541 68.189 48.9373 68.7021 48.7036C69.2119 48.4635 69.6437 48.126 70.0009 47.6912C70.3646 47.2499 70.6406 46.7178 70.8322 46.0947C71.0303 45.4652 71.1309 44.7643 71.1309 43.9921C71.1309 43.2327 71.0303 42.5383 70.8322 41.9153C70.6406 41.2858 70.3646 40.7537 70.0009 40.3188C69.6437 39.8775 69.2119 39.5401 68.7021 39.3064C68.189 39.0663 67.6143 38.943 66.9746 38.943C66.3251 38.943 65.7407 39.0663 65.2211 39.3064C64.7081 39.5401 64.2729 39.8775 63.9093 40.3188C63.5521 40.7537 63.2761 41.2858 63.078 41.9153C62.8864 42.5383 62.7922 43.2327 62.7922 43.9921Z" fill="#0984FF"/>
<path d="M80.4017 48.5744C80.2783 48.2824 80.116 47.9092 79.9082 47.4582C79.7068 47.0104 79.4925 46.5237 79.2587 46.0045C79.0314 45.4853 78.7911 44.9499 78.5314 44.395C78.2716 43.8434 78.0248 43.3177 77.791 42.8245C77.5572 42.3313 77.3397 41.8899 77.1416 41.5006C76.9403 41.1112 76.7811 40.8126 76.661 40.605C76.5214 42.0425 76.4077 43.5968 76.3233 45.2646C76.2454 46.9358 76.1739 48.6231 76.1155 50.3267H74.375C74.427 49.2364 74.4822 48.1331 74.5439 47.0169C74.6023 45.9006 74.6737 44.8071 74.7517 43.733C74.8296 42.6622 74.9108 41.6141 74.9985 40.592C75.0926 39.5731 75.1965 38.6029 75.3102 37.6846H76.8558C77.1838 38.2232 77.5345 38.8592 77.9079 39.5926C78.2878 40.3194 78.6645 41.082 79.0379 41.877C79.4178 42.6752 79.7848 43.4702 80.142 44.2652C80.4959 45.0634 80.8206 45.7903 81.1161 46.4458C81.4019 45.7903 81.7201 45.0634 82.0773 44.2652C82.4312 43.4702 82.7949 42.6752 83.1683 41.877C83.5482 41.082 83.9249 40.3194 84.2983 39.5926C84.6782 38.8592 85.0322 38.2232 85.3634 37.6846H86.909C87.3247 41.7602 87.6364 45.9753 87.8442 50.3267H86.1167C86.055 48.6231 85.9803 46.9358 85.8959 45.2646C85.8082 43.5968 85.6946 42.0425 85.5582 40.605C85.4348 40.8126 85.2757 41.1112 85.0776 41.5006C84.8763 41.8899 84.662 42.3313 84.4282 42.8245C84.2009 43.3177 83.9541 43.8434 83.6879 44.395C83.4281 44.9499 83.1813 45.4853 82.9475 46.0045C82.7202 46.5237 82.5059 47.0104 82.2981 47.4582C82.0967 47.9092 81.9376 48.2824 81.8175 48.5744H80.4017Z" fill="#0984FF"/>
<path d="M89.7031 50.3267V37.6846H97.4184V39.2032H91.4696V42.9543H96.7689V44.4339H91.4696V48.8081H97.873V50.3267H89.7031Z" fill="#0984FF"/>
<path d="M107.652 37.6846V39.2162H103.678V50.3267H101.911V39.2162H97.9238V37.6846H107.652Z" fill="#0984FF"/>
<path d="M108.086 43.9921C108.086 42.9115 108.245 41.9608 108.567 41.1366C108.894 40.3059 109.336 39.6147 109.891 39.0598C110.443 38.5082 111.09 38.0928 111.827 37.8138C112.561 37.538 113.34 37.3984 114.165 37.3984C114.976 37.3984 115.749 37.538 116.477 37.8138C117.204 38.0928 117.84 38.5082 118.386 39.0598C118.931 39.6147 119.363 40.3059 119.685 41.1366C120.013 41.9608 120.178 42.9115 120.178 43.9921C120.178 45.0823 120.013 46.0428 119.685 46.8735C119.363 47.6977 118.931 48.3856 118.386 48.9373C117.84 49.4824 117.204 49.8978 116.477 50.1833C115.749 50.4591 114.976 50.5986 114.165 50.5986C113.34 50.5986 112.561 50.4591 111.827 50.1833C111.09 49.8978 110.443 49.4824 109.891 48.9373C109.336 48.3856 108.894 47.6977 108.567 46.8735C108.245 46.0428 108.086 45.0823 108.086 43.9921ZM109.956 43.9921C109.956 44.7643 110.05 45.4652 110.242 46.0947C110.44 46.7178 110.716 47.2499 111.073 47.6912C111.437 48.126 111.872 48.4635 112.385 48.7036C112.905 48.9373 113.489 49.0541 114.139 49.0541C114.778 49.0541 115.353 48.9373 115.866 48.7036C116.376 48.4635 116.808 48.126 117.165 47.6912C117.529 47.2499 117.805 46.7178 117.996 46.0947C118.194 45.4652 118.295 44.7643 118.295 43.9921C118.295 43.2327 118.194 42.5383 117.996 41.9153C117.805 41.2858 117.529 40.7537 117.165 40.3188C116.808 39.8775 116.376 39.5401 115.866 39.3064C115.353 39.0663 114.778 38.943 114.139 38.943C113.489 38.943 112.905 39.0663 112.385 39.3064C111.872 39.5401 111.437 39.8775 111.073 40.3188C110.716 40.7537 110.44 41.2858 110.242 41.9153C110.05 42.5383 109.956 43.2327 109.956 43.9921Z" fill="#0984FF"/>
<path d="M122.29 50.3267V53.7013H120.602V48.8081H121.939C122.563 48.1072 123.037 47.3284 123.368 46.4717C123.706 45.6151 123.946 44.713 124.096 43.759C124.251 42.7985 124.342 41.8088 124.368 40.7867C124.401 39.7678 124.427 38.7327 124.446 37.6846H131.59V48.8081H133.188V53.7013H131.499V50.3267H122.29ZM126.174 39.2032C126.138 40.0079 126.099 40.8256 126.057 41.6563C126.011 42.487 125.92 43.3145 125.784 44.1354C125.644 44.9596 125.44 45.7643 125.174 46.5496C124.904 47.3381 124.527 48.0909 124.044 48.8081H129.823V39.2032H126.174Z" fill="#0984FF"/>
<path d="M43.3118 57.7178H41.6777V61.8229H43.3118C44.4418 61.8229 45.2818 60.9225 45.2818 59.778C45.2818 58.6182 44.4418 57.7178 43.3118 57.7178ZM43.3118 61.0446H42.4871V58.4961H43.3118C44.0142 58.4961 44.5029 59.0149 44.5029 59.778C44.5029 60.5257 44.0142 61.0446 43.3118 61.0446Z" fill="#FF6F00"/>
<path d="M47.0312 57.7178V61.8229H47.8406V57.7178H47.0312Z" fill="#FF6F00"/>
<path d="M53.8067 59.6255H51.7451V60.3275H52.982C52.8446 60.8006 52.4323 61.121 51.7909 61.121C50.9357 61.121 50.3859 60.5411 50.3859 59.7781C50.3859 58.9998 50.9509 58.4199 51.7298 58.4199C52.2337 58.4199 52.6461 58.6641 52.8293 58.9998L53.5318 58.5878C53.1806 58.0384 52.5239 57.6416 51.7451 57.6416C50.5081 57.6416 49.5918 58.5878 49.5918 59.7781C49.5918 60.9532 50.5081 61.8993 51.7909 61.8993C52.9668 61.8993 53.8067 61.121 53.8067 59.9307V59.6255Z" fill="#FF6F00"/>
<path d="M55.5469 57.7178V61.8229H56.3563V57.7178H55.5469Z" fill="#FF6F00"/>
<path d="M61.01 57.7178H57.9863V58.4961H59.0859V61.8229H59.8952V58.4961H61.01V57.7178Z" fill="#FF6F00"/>
<path d="M65.2741 61.8229H66.1445L64.709 57.7178H63.7011L62.2656 61.8229H63.1361L63.3804 61.0904H65.0297L65.2741 61.8229ZM63.64 60.3273L64.2051 58.6487L64.7701 60.3273H63.64Z" fill="#FF6F00"/>
<path d="M68.532 61.0446V57.7178H67.7227V61.8229H70.0897V61.0446H68.532Z" fill="#FF6F00"/>
<path d="M77.0085 61.8229H77.8789L76.4434 57.7178H75.4355L74 61.8229H74.8705L75.1148 61.0904H76.7641L77.0085 61.8229ZM75.3744 60.3273L75.9395 58.6487L76.5045 60.3273H75.3744Z" fill="#FF6F00"/>
<path d="M81.931 59.7017C82.1753 59.5033 82.328 59.2286 82.328 58.8776C82.328 58.1909 81.763 57.7178 81.0758 57.7178H79.457V61.8229H81.198C81.9004 61.8229 82.4808 61.3345 82.4808 60.6326C82.4808 60.2053 82.267 59.8848 81.931 59.7017ZM81.0758 58.4808C81.3354 58.4808 81.5187 58.6639 81.5187 58.9234C81.5187 59.1828 81.3201 59.3812 81.0758 59.3812H80.2664V58.4808H81.0758ZM81.198 61.0599H80.2664V60.0984H81.198C81.4728 60.0984 81.6714 60.3121 81.6714 60.5868C81.6714 60.8615 81.4728 61.0599 81.198 61.0599Z" fill="#FF6F00"/>
<path d="M86.8948 57.7178H83.8711V58.4961H84.9706V61.8229H85.78V58.4961H86.8948V57.7178Z" fill="#FF6F00"/>
<path d="M90.4547 61.8993C91.6459 61.8993 92.5927 60.9684 92.5927 59.7781C92.5927 58.5725 91.6459 57.6416 90.4547 57.6416C89.2636 57.6416 88.332 58.5725 88.332 59.7781C88.332 60.9684 89.2636 61.8993 90.4547 61.8993ZM90.4547 61.121C89.7064 61.121 89.1261 60.5564 89.1261 59.7781C89.1261 58.9845 89.7064 58.4199 90.4547 58.4199C91.203 58.4199 91.7833 58.9845 91.7833 59.7781C91.7833 60.5564 91.203 61.121 90.4547 61.121Z" fill="#FF6F00"/>
<path d="M98.2951 57.7178V61.0446H97.1192V57.7178H96.3251V61.0446H95.1492V57.7178H94.3398V61.8229H99.1045V57.7178H98.2951Z" fill="#FF6F00"/>
<path d="M104.246 61.8229L102.673 59.7169L104.185 57.7178H103.253L101.848 59.5338V57.7178H101.039V61.8229H101.848V59.9L103.314 61.8229H104.246Z" fill="#FF6F00"/>
<path d="M107.757 61.8993C108.949 61.8993 109.895 60.9684 109.895 59.7781C109.895 58.5725 108.949 57.6416 107.757 57.6416C106.566 57.6416 105.635 58.5725 105.635 59.7781C105.635 60.9684 106.566 61.8993 107.757 61.8993ZM107.757 61.121C107.009 61.121 106.429 60.5564 106.429 59.7781C106.429 58.9845 107.009 58.4199 107.757 58.4199C108.506 58.4199 109.086 58.9845 109.086 59.7781C109.086 60.5564 108.506 61.121 107.757 61.121Z" fill="#FF6F00"/>
<path d="M111.312 61.8229C112.076 61.8992 112.84 61.594 112.84 60.129V58.4961H114.031V61.8229H114.84V57.7178H112.046V60.1442C112.046 60.9683 111.771 61.1362 111.312 61.0751V61.8229Z" fill="#FF6F00"/>
<path d="M119.413 61.8229H120.283L118.848 57.7178H117.84L116.404 61.8229H117.275L117.519 61.0904H119.168L119.413 61.8229ZM117.779 60.3273L118.344 58.6487L118.909 60.3273H117.779Z" fill="#FF6F00"/>
<path d="M28.2266 60.2344H35.8011" stroke="#FF6F00" stroke-width="1.17574"/>
<path d="M125.457 59.8682H133.013" stroke="#FF6F00" stroke-width="1.17574"/>
</svg>
